<?xml version="1.0" encoding="UTF-8"?>
<svg id="Layer_2" data-name="Layer 2" xmlns="http://www.w3.org/2000/svg" xmlns:xlink="http://www.w3.org/1999/xlink" viewBox="0 0 2147.57 517.29">
  <defs>
    <style>
      .cls-1 {
        fill: url(#linear-gradient-2);
      }

      .cls-2 {
        fill: #fff;
      }

      .cls-3 {
        fill: url(#linear-gradient-4);
      }

      .cls-4 {
        fill: url(#linear-gradient-3);
      }

      .cls-5 {
        fill: url(#linear-gradient-5);
      }

      .cls-6 {
        fill: url(#linear-gradient-6);
      }

      .cls-7 {
        fill: url(#linear-gradient);
      }
    </style>
    <linearGradient id="linear-gradient" x1="78.83" y1="452.9" x2="146.52" y2="233.52" gradientUnits="userSpaceOnUse">
      <stop offset="0" stop-color="#c09538"/>
      <stop offset=".22" stop-color="#cf9e2b"/>
      <stop offset=".37" stop-color="#d5a639"/>
      <stop offset=".57" stop-color="#e1b754"/>
    </linearGradient>
    <linearGradient id="linear-gradient-2" x1="221.61" y1="182.47" x2="320.8" y2="10.67" gradientUnits="userSpaceOnUse">
      <stop offset=".07" stop-color="#e9c474"/>
      <stop offset=".18" stop-color="#ecd08a"/>
      <stop offset=".38" stop-color="#f6eebd"/>
      <stop offset=".43" stop-color="#efe2aa"/>
      <stop offset=".67" stop-color="#d0ad56"/>
      <stop offset=".78" stop-color="#c49835"/>
    </linearGradient>
    <linearGradient id="linear-gradient-3" x1="306.68" y1="417.52" x2="420.25" y2="220.81" gradientUnits="userSpaceOnUse">
      <stop offset="0" stop-color="#c09538"/>
      <stop offset=".13" stop-color="#cf9e2b"/>
      <stop offset=".33" stop-color="#f3c86d"/>
      <stop offset=".36" stop-color="#f0c569"/>
      <stop offset=".58" stop-color="#e1b754"/>
      <stop offset=".84" stop-color="#fbf8d0"/>
      <stop offset=".9" stop-color="#faf6cd"/>
      <stop offset=".93" stop-color="#f8f2c6"/>
      <stop offset=".95" stop-color="#f6ebba"/>
      <stop offset=".96" stop-color="#f2e1a8"/>
      <stop offset=".98" stop-color="#edd591"/>
      <stop offset=".99" stop-color="#e7c575"/>
      <stop offset="1" stop-color="#e1b659"/>
    </linearGradient>
    <linearGradient id="linear-gradient-4" x1="99.45" y1="402.27" x2="292.66" y2="67.61" gradientUnits="userSpaceOnUse">
      <stop offset="0" stop-color="#c09538"/>
      <stop offset=".23" stop-color="#cf9e2b"/>
      <stop offset=".41" stop-color="#f3c86d"/>
      <stop offset=".59" stop-color="#e1b754"/>
      <stop offset=".8" stop-color="#fbf8d0"/>
      <stop offset=".96" stop-color="#c89d3e"/>
    </linearGradient>
    <linearGradient id="linear-gradient-5" x1="-451.06" y1="595.7" x2="-95.24" y2="177.33" gradientTransform="translate(497.17 -141.69) rotate(-4.38)" gradientUnits="userSpaceOnUse">
      <stop offset="0" stop-color="#c09538"/>
      <stop offset=".34" stop-color="#cf9e2b"/>
      <stop offset=".67" stop-color="#fbf8d0"/>
      <stop offset=".67" stop-color="#faf7ce"/>
      <stop offset=".7" stop-color="#f2e4ab"/>
      <stop offset=".73" stop-color="#ebd48e"/>
      <stop offset=".76" stop-color="#e6c878"/>
      <stop offset=".8" stop-color="#e2bf68"/>
      <stop offset=".84" stop-color="#e0ba5e"/>
      <stop offset=".9" stop-color="#e0b95c"/>
      <stop offset=".93" stop-color="#d4ab4c"/>
      <stop offset=".97" stop-color="#c79d3b"/>
      <stop offset="1" stop-color="#c39836"/>
    </linearGradient>
    <linearGradient id="linear-gradient-6" x1="356.95" y1="465.57" x2="356.95" y2="146.46" gradientUnits="userSpaceOnUse">
      <stop offset="0" stop-color="#c09538"/>
      <stop offset=".16" stop-color="#cf9e2b"/>
      <stop offset=".38" stop-color="#f3c86d"/>
      <stop offset=".56" stop-color="#fbf8d0"/>
      <stop offset=".58" stop-color="#f8f1c3"/>
      <stop offset=".76" stop-color="#e9c879"/>
      <stop offset=".84" stop-color="#e4b95d"/>
      <stop offset=".99" stop-color="#c99d3d"/>
    </linearGradient>
  </defs>
  <g id="Layer_1-2" data-name="Layer 1">
    <g>
      <g>
        <path class="cls-2" d="M644.03,425.52v-55.12h-20.82v-9.49h52.78v9.49h-20.93v55.12h-11.02Z"/>
        <path class="cls-2" d="M683.74,425.52v-72.07h10.41v29.6c4.39-5.72,10.72-7.86,17.35-7.86,14.5,0,20.31,11.13,20.31,23.68v26.64h-10.41v-26.54c0-8.27-3.67-14.29-12.25-14.29s-15.01,5.1-15.01,14.29v26.54h-10.41Z"/>
        <path class="cls-2" d="M741.11,401.02c0-15.11,8.68-25.72,25.01-25.72s24.81,10.41,24.81,25.32v3.06h-39.1c1.02,7.96,5.31,13.68,15.01,13.68,8.47,0,12.05-3.57,12.96-7.76h10.62c-1.53,10.31-9.6,17.05-23.58,17.05-16.54,0-25.72-10.41-25.72-25.62ZM779.6,395.3c-1.74-6.43-4.8-10.92-13.47-10.92s-12.05,4.49-13.68,10.92h27.15Z"/>
        <path class="cls-2" d="M826.05,425.52v-64.72h39.1v9.6h-28.07v16.84h25.42v9.19h-25.42v29.09h-11.02Z"/>
        <path class="cls-2" d="M872.9,368.25v-11.54h11.33v11.54h-11.33ZM873.41,425.52v-49.2h10.41v49.2h-10.41Z"/>
        <path class="cls-2" d="M897.3,425.52v-49.2h10.41v6.74c4.39-5.72,10.62-7.86,17.25-7.86,14.6,0,20.42,11.13,20.42,23.68v26.64h-10.41v-26.54c0-8.27-3.67-14.29-12.35-14.29-8.06,0-14.9,5.1-14.9,14.29v26.54h-10.41Z"/>
        <path class="cls-2" d="M1006.33,425.52c-5.61,0-8.88-2.14-10-6.64-3.78,5.1-10.62,7.66-17.86,7.66-15.01-.1-24.09-9.9-24.09-25.52,0-17.15,10.51-25.72,23.79-25.72,6.64,0,13.47,2.35,17.76,7.25v-6.23h10.31v36.75c0,2.04,1.02,3.06,3.16,3.06h2.65v9.39h-5.72ZM995.81,401.12c0-9.39-4.59-16.23-14.9-16.23-8.78,0-15.92,4.29-15.92,16.03s7.15,16.03,15.92,16.03c10.72,0,14.9-8.27,14.9-15.82Z"/>
        <path class="cls-2" d="M1030.73,353.65v71.87h-10.41v-71.87h10.41Z"/>
        <path class="cls-2" d="M1068.5,425.52v-64.72h24.7c18.89,0,32.77,11.13,32.77,32.36s-13.88,32.36-32.77,32.36h-24.7ZM1079.52,415.92h13.27c12.45,0,22.05-6.64,22.05-22.76s-9.6-22.76-22.05-22.76h-13.27v45.53Z"/>
        <path class="cls-2" d="M1132.5,401.02c0-15.11,8.68-25.72,25.01-25.72s24.81,10.41,24.81,25.32v3.06h-39.1c1.02,7.96,5.31,13.68,15.01,13.68,8.47,0,12.05-3.57,12.96-7.76h10.62c-1.53,10.31-9.6,17.05-23.58,17.05-16.54,0-25.72-10.41-25.72-25.62ZM1170.99,395.3c-1.74-6.43-4.8-10.92-13.47-10.92s-12.05,4.49-13.68,10.92h27.15Z"/>
        <path class="cls-2" d="M1198.35,408.88c.41,7.96,8.06,8.78,13.88,8.78,6.43,0,10.11-2.45,10-6.12,0-3.88-5.92-5.51-12.56-7.15-8.68-2.04-19.09-3.98-19.09-14.9,0-9.9,9.6-14.19,19.91-14.19s21.44,3.88,21.95,17.15h-10.21c-.31-6.02-5.72-8.17-11.64-8.17-4.39,0-9.19,1.74-9.19,5s3.57,4.39,10.72,6.12c8.27,2.04,21.33,5.21,21.33,15.82,0,9.8-9.09,15.31-21.23,15.31-10.31,0-24.09-3.06-24.09-17.66h10.21Z"/>
        <path class="cls-2" d="M1246.84,357.94h10.51v7.15c0,5.51-.2,9.7-4.19,11.23h21.23v9.09h-17.25v25.52c0,4.08,1.84,5.21,5,5.21h12.66v9.49h-14.6c-7.96,0-13.37-3.27-13.37-14.39v-25.83h-9.7v-9.09h1.84c5.92,0,7.86-3.27,7.86-10v-8.37Z"/>
        <path class="cls-2" d="M1283.9,368.25v-11.54h11.33v11.54h-11.33ZM1284.41,425.52v-49.2h10.41v49.2h-10.41Z"/>
        <path class="cls-2" d="M1308.3,425.52v-49.2h10.41v6.74c4.39-5.72,10.62-7.86,17.25-7.86,14.6,0,20.42,11.13,20.42,23.68v26.64h-10.41v-26.54c0-8.27-3.67-14.29-12.35-14.29-8.06,0-14.9,5.1-14.9,14.29v26.54h-10.41Z"/>
        <path class="cls-2" d="M1417.32,425.52c-5.61,0-8.88-2.14-10-6.64-3.78,5.1-10.62,7.66-17.86,7.66-15.01-.1-24.09-9.9-24.09-25.52,0-17.15,10.51-25.72,23.79-25.72,6.64,0,13.47,2.35,17.76,7.25v-6.23h10.31v36.75c0,2.04,1.02,3.06,3.16,3.06h2.65v9.39h-5.72ZM1406.81,401.12c0-9.39-4.59-16.23-14.9-16.23-8.78,0-15.92,4.29-15.92,16.03s7.15,16.03,15.92,16.03c10.72,0,14.9-8.27,14.9-15.82Z"/>
        <path class="cls-2" d="M1436.01,357.94h10.51v7.15c0,5.51-.2,9.7-4.19,11.23h21.23v9.09h-17.25v25.52c0,4.08,1.84,5.21,5,5.21h12.66v9.49h-14.6c-7.96,0-13.37-3.27-13.37-14.39v-25.83h-9.7v-9.09h1.84c5.92,0,7.86-3.27,7.86-10v-8.37Z"/>
        <path class="cls-2" d="M1473.06,368.25v-11.54h11.33v11.54h-11.33ZM1473.57,425.52v-49.2h10.41v49.2h-10.41Z"/>
        <path class="cls-2" d="M1521.04,375.29c14.8,0,26.03,8.68,26.03,25.72s-11.43,25.52-26.03,25.52-26.13-8.37-26.13-25.52,11.33-25.72,26.13-25.72ZM1536.35,400.91c0-11.74-6.74-16.03-15.31-16.03s-15.41,4.29-15.41,16.03,6.94,16.03,15.41,16.03,15.31-4.29,15.31-16.03Z"/>
        <path class="cls-2" d="M1557.18,425.52v-49.2h10.41v6.74c4.39-5.72,10.62-7.86,17.25-7.86,14.6,0,20.42,11.13,20.42,23.68v26.64h-10.41v-26.54c0-8.27-3.67-14.29-12.35-14.29-8.06,0-14.9,5.1-14.9,14.29v26.54h-10.41Z"/>
        <path class="cls-2" d="M1641.91,425.52v-64.62h11.02v64.62h-11.02Z"/>
        <path class="cls-2" d="M1672.03,408.88c.41,7.96,8.06,8.78,13.88,8.78,6.43,0,10.11-2.45,10-6.12,0-3.88-5.92-5.51-12.56-7.15-8.68-2.04-19.09-3.98-19.09-14.9,0-9.9,9.6-14.19,19.91-14.19s21.44,3.88,21.95,17.15h-10.21c-.31-6.02-5.72-8.17-11.64-8.17-4.39,0-9.19,1.74-9.19,5s3.57,4.39,10.72,6.12c8.27,2.04,21.33,5.21,21.33,15.82,0,9.8-9.08,15.31-21.23,15.31-10.31,0-24.09-3.06-24.09-17.66h10.21Z"/>
        <path class="cls-2" d="M1740.83,425.52v-64.72h39.1v9.6h-28.07v16.84h25.42v9.19h-25.42v29.09h-11.02Z"/>
        <path class="cls-2" d="M1801.57,385.6c1.53-5.51,6.64-9.39,12.25-9.39h5v10.62h-3.88c-8.27,0-13.47,6.84-13.47,14.7v23.99h-10.41v-37.26c0-1.94-.92-2.86-2.65-2.86h-3.37v-9.09h7.25c6.12,0,9.29,2.76,9.29,8.68v.61Z"/>
        <path class="cls-2" d="M1823.72,401.02c0-15.11,8.68-25.72,25.01-25.72s24.81,10.41,24.81,25.32v3.06h-39.1c1.02,7.96,5.31,13.68,15.01,13.68,8.47,0,12.05-3.57,12.96-7.76h10.62c-1.53,10.31-9.6,17.05-23.58,17.05-16.54,0-25.72-10.41-25.72-25.62ZM1862.21,395.3c-1.74-6.43-4.8-10.92-13.47-10.92s-12.05,4.49-13.68,10.92h27.15Z"/>
        <path class="cls-2" d="M1880.99,401.02c0-15.11,8.68-25.72,25.01-25.72s24.81,10.41,24.81,25.32v3.06h-39.1c1.02,7.96,5.31,13.68,15.01,13.68,8.47,0,12.05-3.57,12.96-7.76h10.62c-1.53,10.31-9.6,17.05-23.58,17.05-16.54,0-25.72-10.41-25.72-25.62ZM1919.48,395.3c-1.74-6.43-4.8-10.92-13.47-10.92s-12.05,4.49-13.68,10.92h27.15Z"/>
        <path class="cls-2" d="M1979.71,418.88c-4.08,5.1-10.51,7.66-17.76,7.66-13.17,0-23.68-8.37-23.68-25.52s10.51-25.72,23.79-25.72c6.94,0,13.47,2.55,17.66,7.76v-29.6h10.41v72.07h-10.41v-6.64ZM1979.71,401.02c0-8.57-4.8-16.13-14.9-16.13-8.78,0-15.92,4.29-15.92,16.13s7.15,15.92,15.92,15.92c9.9,0,14.9-6.84,14.9-15.92Z"/>
        <path class="cls-2" d="M2026.26,375.29c14.8,0,26.03,8.68,26.03,25.72s-11.43,25.52-26.03,25.52-26.13-8.37-26.13-25.52,11.33-25.72,26.13-25.72ZM2041.57,400.91c0-11.74-6.74-16.03-15.31-16.03s-15.41,4.29-15.41,16.03,6.94,16.03,15.41,16.03,15.31-4.29,15.31-16.03Z"/>
        <path class="cls-2" d="M2062.4,425.52v-49.2h10.31v6.84c4.29-5.82,10.31-7.96,16.54-7.96,8.27,0,14.39,3.57,17.76,9.6,3.98-5.51,10.41-9.6,18.99-9.6,13.98,0,21.13,9.6,21.13,22.87v27.46h-10.41v-26.64c0-8.17-3.67-14.09-12.35-14.09s-14.39,5.61-14.39,13.99v26.75h-10.41v-26.64c0-8.17-3.78-14.09-12.25-14.09-7.66,0-14.5,4.8-14.5,13.99v26.75h-10.41Z"/>
      </g>
      <g>
        <path class="cls-7" d="M145.35,381.74c-34.31-31.6-53.99-76.47-53.99-123.1,0-18.63,3.06-36.9,9.1-54.4h-41.46c-4.82,17.62-7.26,35.91-7.26,54.4,0,79.03,45.81,151.84,116.91,186.28l19.81-34.34c-15.71-7.26-30.19-16.95-43.1-28.85Z"/>
        <path class="cls-1" d="M258.63,51.72c-57.76,0-112.73,24.18-151.95,66.62h303.91c-39.18-42.43-94.16-66.62-151.95-66.62Z"/>
        <path class="cls-4" d="M406.28,258.65c0-17.74-3.06-34.93-9.09-51.15l-113.57,196.71c70.36-11.83,122.65-73.28,122.65-145.56Z"/>
        <path class="cls-3" d="M258.81,407.85l129.13-223.67,7.65-13.23,19.02-32.94H90.63c-10.41,14.44-18.86,30.08-25.17,46.56h136.59l-2.74,4.78-2.45,4.27-5.24,9.03-.91,1.59h-69.32c-6.87,17.19-10.36,35.48-10.36,54.4,0,41.16,17.37,80.75,47.65,108.62,11.82,10.9,25.15,19.71,39.68,26.19l119.67-207.28.93-1.6h22.72l-2.76,4.79-123.83,214.45-6.81,11.74-21.45,37.16c12.99,4.83,26.44,8.32,40.07,10.42l24.27-42.05,7.65-13.23ZM270.25,189.36l-80.7,139.81-.91,1.59h-22.7l2.76-4.78,80.7-139.81.92-1.6h22.7l-2.76,4.79Z"/>
        <path class="cls-5" d="M238.89.77C96.47,11.68-10.14,135.97.77,278.4c10.91,142.41,135.2,249.03,277.63,238.12,142.41-10.91,249.02-135.22,238.11-277.63C505.6,96.47,381.3-10.14,238.89.77ZM275.94,484.57c-124.57,9.54-233.67-84.04-243.22-208.62C23.18,151.36,116.75,42.25,241.33,32.71c35.95-2.75,72.41,3.21,105.46,17.22,31.95,13.57,60.86,34.67,83.58,61.03.36.42.74.86,1.08,1.28,31.08,36.55,49.45,81.19,53.12,129.1,9.54,124.57-84.04,233.69-208.62,243.23Z"/>
        <path class="cls-6" d="M432.43,146.46l-22.95,39.72c10.78,22.42,16.47,47.44,16.47,72.46,0,42.81-16.05,83.5-45.17,114.56-28.68,30.59-67.46,49.1-109.42,52.25l-23.01,39.86c3.35.17,6.8.25,10.29.25,114.1,0,206.93-92.83,206.93-206.93,0-40.07-11.44-78.73-33.13-112.18Z"/>
      </g>
      <g>
        <path class="cls-2" d="M696.35,191.04c-16.48-3.3-35.4-9.19-35.4-25.64,0-12.67,10.86-18.83,33.21-18.83,16.77,0,36.46,7.57,36.73,28.89l.02,1.5h31.71l.06-1.45c.64-15.18-3.79-27.83-13.15-37.6-12.12-12.63-31.88-19.59-55.64-19.59-18.68,0-34.51,3.69-45.77,10.67-13.84,8.58-20.86,21.84-20.86,39.41,0,35,30.87,45.94,54.08,51.13,1.42.32,2.95.66,4.55,1,18.35,4,46.09,10.04,46.09,29.8,0,13.03-12.02,19.37-36.73,19.37-21.77,0-38.33-12.16-40.27-29.58l-.15-1.35h-32.74l.02,1.54c.56,40.01,37,57.92,72.87,57.92,13.65,0,33.13-1.94,48.49-11.17,14.73-8.85,22.2-22.22,22.2-39.72,0-41.11-40.05-49.88-69.31-56.29Z"/>
        <path class="cls-2" d="M845.53,158.73c-41.93,0-67.98,26.78-67.98,69.88s26.78,69.61,69.88,69.61c36.38,0,59.77-16.98,64.17-46.6l.26-1.74h-31.19l-.26,1.19c-1.95,8.86-9.24,19.43-32.97,19.43-21.92,0-34.75-11.21-38.13-33.32h103.67v-9.66c0-20.23-6.09-37.35-17.61-49.54-11.92-12.6-29.15-19.26-49.83-19.26ZM811.15,211.9c5.19-18.43,15.27-25.99,34.38-25.99,21.4,0,29.22,10.31,33.81,25.99h-68.18Z"/>
        <polygon class="cls-2" points="985.24 260.17 947.49 161.44 916.29 161.44 967.37 295.23 1003.1 295.23 1053.9 161.44 1022.98 161.44 985.24 260.17"/>
        <path class="cls-2" d="M1124.13,158.73c-41.93,0-67.98,26.78-67.98,69.88s26.78,69.61,69.88,69.61c36.38,0,59.77-16.98,64.17-46.6l.26-1.74h-31.19l-.26,1.19c-1.95,8.86-9.24,19.43-32.97,19.43-21.92,0-34.75-11.21-38.13-33.32h103.67v-9.66c0-20.23-6.09-37.35-17.61-49.54-11.92-12.6-29.15-19.26-49.83-19.26ZM1089.76,211.9c5.19-18.43,15.27-25.99,34.38-25.99,21.4,0,29.22,10.31,33.81,25.99h-68.18Z"/>
        <path class="cls-2" d="M1290.15,158.45c-18.65,0-33.54,6.12-44.33,18.2v-15.21h-30.71v133.8h30.71v-72.05c0-25.19,19.13-36.46,38.09-36.46,27.24,0,31.31,22.84,31.31,36.46v72.05h30.71v-72.32c0-18.19-4.46-33.71-12.89-44.9-9.78-12.98-24.21-19.56-42.89-19.56Z"/>
        <polygon class="cls-2" points="1660.13 120.47 1620.5 258.38 1576.38 120.47 1539.44 120.47 1495.32 258.64 1455.69 120.47 1422.13 120.47 1474.58 295.23 1514.79 295.23 1558.16 161.69 1600.48 295.23 1641.24 295.23 1693.69 120.47 1660.13 120.47"/>
        <path class="cls-2" d="M1756.22,158.73c-43.77,0-70.97,26.78-70.97,69.88s27.19,69.34,70.97,69.34,70.7-26.57,70.7-69.34-27.09-69.88-70.7-69.88ZM1756.22,269.41c-14.73,0-39.45-5.34-39.45-41.07s24.71-41.07,39.45-41.07c17.87,0,39.18,7.13,39.18,41.07s-21.3,41.07-39.18,41.07Z"/>
        <path class="cls-2" d="M1888.39,180.55c-1.84-12.69-10.51-19.11-25.83-19.11h-20.78v27.18h10.47c3.83,0,5.54,1.87,5.54,6.08v100.54h30.71v-65.27c0-18.66,11.78-37.55,34.29-37.55h11.83v-31.25h-14.81c-13.36,0-25.44,7.69-31.41,19.38Z"/>
        <rect class="cls-2" x="1952.19" y="101.21" width="30.71" height="194.02"/>
        <path class="cls-2" d="M2116.86,100.67v76.14c-10.92-11.54-27.23-18.09-45.42-18.09s-34.43,6.06-45.9,17.54c-12.32,12.32-18.82,30.42-18.82,52.35s6.5,39.89,18.8,52.08c11.39,11.29,27.18,17.26,45.66,17.26s34.84-6.29,45.69-17.8v15.09h30.71V100.67h-30.71ZM2078.77,269.41c-15.24,0-40.8-5.3-40.8-40.8s25.56-41.35,40.8-41.35c28.11,0,38.09,22.27,38.09,41.35,0,25.17-14.6,40.8-38.09,40.8Z"/>
      </g>
    </g>
  </g>
</svg>