<?xml version="1.0" encoding="UTF-8"?>
<svg id="Layer_2" data-name="Layer 2" xmlns="http://www.w3.org/2000/svg" xmlns:xlink="http://www.w3.org/1999/xlink" viewBox="0 0 931.91 931.94">
  <defs>
    <style>
      .cls-1 {
        fill: url(#linear-gradient-2);
      }

      .cls-2 {
        fill: url(#linear-gradient-4);
      }

      .cls-3 {
        fill: url(#linear-gradient-3);
      }

      .cls-4 {
        fill: url(#linear-gradient-5);
      }

      .cls-5 {
        fill: url(#linear-gradient-6);
      }

      .cls-6 {
        fill: url(#linear-gradient);
      }
    </style>
    <linearGradient id="linear-gradient" x1="142.01" y1="815.94" x2="263.97" y2="420.7" gradientUnits="userSpaceOnUse">
      <stop offset="0" stop-color="#c09538"/>
      <stop offset=".22" stop-color="#cf9e2b"/>
      <stop offset=".37" stop-color="#d5a639"/>
      <stop offset=".57" stop-color="#e1b754"/>
    </linearGradient>
    <linearGradient id="linear-gradient-2" x1="399.24" y1="328.73" x2="577.94" y2="19.22" gradientUnits="userSpaceOnUse">
      <stop offset=".07" stop-color="#e9c474"/>
      <stop offset=".18" stop-color="#ecd08a"/>
      <stop offset=".38" stop-color="#f6eebd"/>
      <stop offset=".43" stop-color="#efe2aa"/>
      <stop offset=".67" stop-color="#d0ad56"/>
      <stop offset=".78" stop-color="#c49835"/>
    </linearGradient>
    <linearGradient id="linear-gradient-3" x1="552.51" y1="752.19" x2="757.12" y2="397.81" gradientUnits="userSpaceOnUse">
      <stop offset="0" stop-color="#c09538"/>
      <stop offset=".13" stop-color="#cf9e2b"/>
      <stop offset=".33" stop-color="#f3c86d"/>
      <stop offset=".36" stop-color="#f0c569"/>
      <stop offset=".58" stop-color="#e1b754"/>
      <stop offset=".84" stop-color="#fbf8d0"/>
      <stop offset=".9" stop-color="#faf6cd"/>
      <stop offset=".93" stop-color="#f8f2c6"/>
      <stop offset=".95" stop-color="#f6ebba"/>
      <stop offset=".96" stop-color="#f2e1a8"/>
      <stop offset=".98" stop-color="#edd591"/>
      <stop offset=".99" stop-color="#e7c575"/>
      <stop offset="1" stop-color="#e1b659"/>
    </linearGradient>
    <linearGradient id="linear-gradient-4" x1="179.16" y1="724.71" x2="527.26" y2="121.8" gradientUnits="userSpaceOnUse">
      <stop offset="0" stop-color="#c09538"/>
      <stop offset=".23" stop-color="#cf9e2b"/>
      <stop offset=".41" stop-color="#f3c86d"/>
      <stop offset=".59" stop-color="#e1b754"/>
      <stop offset=".8" stop-color="#fbf8d0"/>
      <stop offset=".96" stop-color="#c89d3e"/>
    </linearGradient>
    <linearGradient id="linear-gradient-5" x1="74.86" y1="1369.68" x2="715.89" y2="615.94" gradientTransform="translate(-11.83 -483.09) rotate(-4.38)" gradientUnits="userSpaceOnUse">
      <stop offset="0" stop-color="#c09538"/>
      <stop offset=".34" stop-color="#cf9e2b"/>
      <stop offset=".67" stop-color="#fbf8d0"/>
      <stop offset=".67" stop-color="#faf7ce"/>
      <stop offset=".7" stop-color="#f2e4ab"/>
      <stop offset=".73" stop-color="#ebd48e"/>
      <stop offset=".76" stop-color="#e6c878"/>
      <stop offset=".8" stop-color="#e2bf68"/>
      <stop offset=".84" stop-color="#e0ba5e"/>
      <stop offset=".9" stop-color="#e0b95c"/>
      <stop offset=".93" stop-color="#d4ab4c"/>
      <stop offset=".97" stop-color="#c79d3b"/>
      <stop offset="1" stop-color="#c39836"/>
    </linearGradient>
    <linearGradient id="linear-gradient-6" x1="643.07" y1="838.76" x2="643.07" y2="263.87" gradientUnits="userSpaceOnUse">
      <stop offset="0" stop-color="#c09538"/>
      <stop offset=".16" stop-color="#cf9e2b"/>
      <stop offset=".38" stop-color="#f3c86d"/>
      <stop offset=".56" stop-color="#fbf8d0"/>
      <stop offset=".58" stop-color="#f8f1c3"/>
      <stop offset=".76" stop-color="#e9c879"/>
      <stop offset=".84" stop-color="#e4b95d"/>
      <stop offset=".99" stop-color="#c99d3d"/>
    </linearGradient>
  </defs>
  <g id="Layer_1-2" data-name="Layer 1">
    <g>
      <path class="cls-6" d="M261.85,687.74c-61.81-56.94-97.27-137.77-97.27-221.77,0-33.56,5.52-66.48,16.39-98.01h-74.7c-8.68,31.75-13.07,64.7-13.07,98.01,0,142.37,82.53,273.55,210.62,335.59l35.69-61.86c-28.3-13.07-54.39-30.54-77.65-51.97Z"/>
      <path class="cls-1" d="M465.95,93.18c-104.05,0-203.09,43.57-273.76,120.03h547.51c-70.58-76.44-169.64-120.03-273.76-120.03Z"/>
      <path class="cls-3" d="M731.94,465.97c0-31.96-5.52-62.93-16.37-92.15l-204.6,354.39c126.76-21.31,220.97-132.03,220.97-262.24Z"/>
      <path class="cls-2" d="M466.27,734.78l232.64-402.97,13.78-23.83,34.27-59.34H163.27c-18.75,26.01-33.97,54.19-45.35,83.88h246.08l-4.94,8.61-4.42,7.69-9.43,16.28-1.65,2.86h-124.88c-12.38,30.97-18.66,63.92-18.66,98.01,0,74.15,31.3,145.49,85.85,195.69,21.29,19.64,45.31,35.51,71.5,47.18l215.59-373.43,1.67-2.89h40.93l-4.97,8.63-223.09,386.35-12.27,21.15-38.64,66.94c23.4,8.7,47.64,15,72.18,18.77l43.73-75.75,13.78-23.83ZM486.87,341.15l-145.39,251.87-1.65,2.86h-40.89l4.97-8.61,145.39-251.87,1.65-2.89h40.89l-4.97,8.63Z"/>
      <path class="cls-4" d="M430.38,1.38C173.79,21.04-18.27,244.96,1.38,501.56c19.65,256.57,243.58,448.65,500.17,429,256.57-19.65,448.63-243.6,428.97-500.17C910.88,173.79,686.95-18.27,430.38,1.38ZM497.12,872.99c-224.43,17.19-420.98-151.41-438.17-375.84C41.76,272.69,210.34,76.12,434.77,58.93c64.76-4.96,130.44,5.78,189.99,31.02,57.55,24.45,109.64,62.46,150.57,109.95.65.75,1.34,1.55,1.94,2.31,55.99,65.85,89.09,146.28,95.7,232.58,17.19,224.43-151.41,421-375.84,438.19Z"/>
      <path class="cls-5" d="M779.06,263.87l-41.35,71.56c19.41,40.38,29.67,85.46,29.67,130.54,0,77.13-28.91,150.43-81.39,206.38-51.67,55.1-121.54,88.46-197.13,94.14l-41.46,71.82c6.04.3,12.25.46,18.54.46,205.56,0,372.79-167.23,372.79-372.79,0-72.18-20.6-141.85-59.68-202.1Z"/>
    </g>
  </g>
</svg>