<?xml version="1.0" encoding="UTF-8"?>
<svg id="Layer_2" data-name="Layer 2" xmlns="http://www.w3.org/2000/svg" xmlns:xlink="http://www.w3.org/1999/xlink" viewBox="0 0 828.54 647.88">
  <defs>
    <style>
      .cls-1 {
        fill: url(#linear-gradient-2);
      }

      .cls-2 {
        fill: #fff;
      }

      .cls-3 {
        fill: url(#linear-gradient-4);
      }

      .cls-4 {
        fill: url(#linear-gradient-3);
      }

      .cls-5 {
        fill: url(#linear-gradient-5);
      }

      .cls-6 {
        fill: url(#linear-gradient-6);
      }

      .cls-7 {
        fill: url(#linear-gradient);
      }
    </style>
    <linearGradient id="linear-gradient" x1="246.6" y1="422.33" x2="309.72" y2="217.75" gradientUnits="userSpaceOnUse">
      <stop offset="0" stop-color="#c09538"/>
      <stop offset=".22" stop-color="#cf9e2b"/>
      <stop offset=".37" stop-color="#d5a639"/>
      <stop offset=".57" stop-color="#e1b754"/>
    </linearGradient>
    <linearGradient id="linear-gradient-2" x1="379.74" y1="170.15" x2="472.23" y2="9.95" gradientUnits="userSpaceOnUse">
      <stop offset=".07" stop-color="#e9c474"/>
      <stop offset=".18" stop-color="#ecd08a"/>
      <stop offset=".38" stop-color="#f6eebd"/>
      <stop offset=".43" stop-color="#efe2aa"/>
      <stop offset=".67" stop-color="#d0ad56"/>
      <stop offset=".78" stop-color="#c49835"/>
    </linearGradient>
    <linearGradient id="linear-gradient-3" x1="459.07" y1="389.33" x2="564.97" y2="205.9" gradientUnits="userSpaceOnUse">
      <stop offset="0" stop-color="#c09538"/>
      <stop offset=".13" stop-color="#cf9e2b"/>
      <stop offset=".33" stop-color="#f3c86d"/>
      <stop offset=".36" stop-color="#f0c569"/>
      <stop offset=".58" stop-color="#e1b754"/>
      <stop offset=".84" stop-color="#fbf8d0"/>
      <stop offset=".9" stop-color="#faf6cd"/>
      <stop offset=".93" stop-color="#f8f2c6"/>
      <stop offset=".95" stop-color="#f6ebba"/>
      <stop offset=".96" stop-color="#f2e1a8"/>
      <stop offset=".98" stop-color="#edd591"/>
      <stop offset=".99" stop-color="#e7c575"/>
      <stop offset="1" stop-color="#e1b659"/>
    </linearGradient>
    <linearGradient id="linear-gradient-4" x1="265.82" y1="375.11" x2="446" y2="63.04" gradientUnits="userSpaceOnUse">
      <stop offset="0" stop-color="#c09538"/>
      <stop offset=".23" stop-color="#cf9e2b"/>
      <stop offset=".41" stop-color="#f3c86d"/>
      <stop offset=".59" stop-color="#e1b754"/>
      <stop offset=".8" stop-color="#fbf8d0"/>
      <stop offset=".96" stop-color="#c89d3e"/>
    </linearGradient>
    <linearGradient id="linear-gradient-5" x1="-55.49" y1="1111.95" x2="276.3" y2="721.82" gradientTransform="translate(230.15 -659.07) rotate(-4.38)" gradientUnits="userSpaceOnUse">
      <stop offset="0" stop-color="#c09538"/>
      <stop offset=".34" stop-color="#cf9e2b"/>
      <stop offset=".67" stop-color="#fbf8d0"/>
      <stop offset=".67" stop-color="#faf7ce"/>
      <stop offset=".7" stop-color="#f2e4ab"/>
      <stop offset=".73" stop-color="#ebd48e"/>
      <stop offset=".76" stop-color="#e6c878"/>
      <stop offset=".8" stop-color="#e2bf68"/>
      <stop offset=".84" stop-color="#e0ba5e"/>
      <stop offset=".9" stop-color="#e0b95c"/>
      <stop offset=".93" stop-color="#d4ab4c"/>
      <stop offset=".97" stop-color="#c79d3b"/>
      <stop offset="1" stop-color="#c39836"/>
    </linearGradient>
    <linearGradient id="linear-gradient-6" x1="505.94" y1="434.14" x2="505.94" y2="136.58" gradientUnits="userSpaceOnUse">
      <stop offset="0" stop-color="#c09538"/>
      <stop offset=".16" stop-color="#cf9e2b"/>
      <stop offset=".38" stop-color="#f3c86d"/>
      <stop offset=".56" stop-color="#fbf8d0"/>
      <stop offset=".58" stop-color="#f8f1c3"/>
      <stop offset=".76" stop-color="#e9c879"/>
      <stop offset=".84" stop-color="#e4b95d"/>
      <stop offset=".99" stop-color="#c99d3d"/>
    </linearGradient>
  </defs>
  <g id="Layer_1-2" data-name="Layer 1">
    <g>
      <g>
        <path class="cls-7" d="M308.62,355.97c-31.99-29.47-50.35-71.31-50.35-114.79,0-17.37,2.86-34.41,8.48-50.73h-38.66c-4.49,16.44-6.77,33.49-6.77,50.73,0,73.69,42.72,141.59,109.02,173.7l18.47-32.02c-14.65-6.77-28.15-15.81-40.19-26.9Z"/>
        <path class="cls-1" d="M414.26,48.23c-53.86,0-105.12,22.55-141.7,62.13h283.39c-36.53-39.56-87.8-62.13-141.7-62.13Z"/>
        <path class="cls-4" d="M551.94,241.18c0-16.54-2.86-32.57-8.47-47.69l-105.9,183.43c65.61-11.03,114.37-68.34,114.37-135.74Z"/>
        <path class="cls-3" d="M414.43,380.32l120.41-208.57,7.13-12.33,17.74-30.71h-302.11c-9.7,13.46-17.58,28.05-23.47,43.42h127.37l-2.56,4.46-2.29,3.98-4.88,8.42-.85,1.48h-64.64c-6.41,16.03-9.66,33.08-9.66,50.73,0,38.38,16.2,75.3,44.44,101.29,11.02,10.17,23.45,18.38,37.01,24.42l111.59-193.29.87-1.49h21.19l-2.57,4.47-115.47,199.97-6.35,10.95-20,34.65c12.11,4.5,24.66,7.76,37.36,9.72l22.63-39.21,7.13-12.33ZM425.09,176.58l-75.26,130.37-.85,1.48h-21.16l2.57-4.46,75.26-130.37.85-1.49h21.16l-2.57,4.47Z"/>
        <path class="cls-5" d="M395.85.72c-132.81,10.17-232.22,126.08-222.05,258.89,10.17,132.8,126.08,232.22,258.89,222.05,132.8-10.17,232.21-126.09,222.04-258.89C644.56,89.95,528.65-9.46,395.85.72ZM430.4,451.86c-116.16,8.9-217.9-78.37-226.8-194.53-8.9-116.18,78.36-217.92,194.52-226.82,33.52-2.57,67.52,2.99,98.34,16.06,29.79,12.66,56.75,32.33,77.93,56.91.34.39.69.8,1.01,1.19,28.98,34.09,46.11,75.71,49.53,120.38,8.9,116.16-78.37,217.91-194.53,226.81Z"/>
        <path class="cls-6" d="M576.33,136.58l-21.4,37.04c10.05,20.9,15.36,44.23,15.36,67.57,0,39.92-14.97,77.86-42.13,106.82-26.74,28.52-62.91,45.79-102.04,48.73l-21.46,37.17c3.13.15,6.34.24,9.6.24,106.4,0,192.96-86.56,192.96-192.96,0-37.36-10.66-73.42-30.89-104.61Z"/>
      </g>
      <g>
        <path class="cls-2" d="M40.34,589.67c-8.95-1.79-19.23-4.99-19.23-13.93,0-6.88,5.9-10.23,18.04-10.23,9.11,0,19.8,4.11,19.95,15.69v.81h17.23l.03-.79c.35-8.25-2.06-15.12-7.14-20.42-6.58-6.86-17.31-10.64-30.22-10.64-10.15,0-18.74,2-24.86,5.8-7.52,4.66-11.33,11.86-11.33,21.4,0,19.01,16.77,24.95,29.37,27.77.77.18,1.6.36,2.47.55,9.97,2.17,25.03,5.45,25.03,16.18,0,7.08-6.53,10.52-19.95,10.52-11.83,0-20.82-6.61-21.87-16.06l-.08-.73H0v.84c.31,21.73,20.11,31.46,39.59,31.46,7.41,0,18-1.05,26.34-6.07,8-4.81,12.06-12.07,12.06-21.57,0-22.33-21.75-27.09-37.65-30.57Z"/>
        <path class="cls-2" d="M121.36,572.12c-22.78,0-36.92,14.54-36.92,37.95s14.54,37.81,37.95,37.81c19.76,0,32.46-9.22,34.85-25.31l.14-.95h-16.94l-.14.65c-1.06,4.81-5.02,10.55-17.91,10.55-11.91,0-18.87-6.09-20.71-18.1h56.31v-5.24c0-10.99-3.31-20.29-9.56-26.9-6.47-6.84-15.83-10.46-27.07-10.46ZM102.69,601c2.82-10.01,8.29-14.12,18.67-14.12,11.62,0,15.87,5.6,18.36,14.12h-37.03Z"/>
        <polygon class="cls-2" points="197.24 627.21 176.74 573.59 159.8 573.59 187.54 646.26 206.94 646.26 234.53 573.59 217.74 573.59 197.24 627.21"/>
        <path class="cls-2" d="M272.68,572.12c-22.78,0-36.92,14.54-36.92,37.95s14.54,37.81,37.95,37.81c19.76,0,32.46-9.22,34.85-25.31l.14-.95h-16.94l-.14.65c-1.06,4.81-5.02,10.55-17.91,10.55-11.91,0-18.87-6.09-20.71-18.1h56.31v-5.24c0-10.99-3.31-20.29-9.56-26.9-6.47-6.84-15.83-10.46-27.07-10.46ZM254.01,601c2.82-10.01,8.29-14.12,18.67-14.12,11.62,0,15.87,5.6,18.36,14.12h-37.03Z"/>
        <path class="cls-2" d="M362.85,571.97c-10.13,0-18.22,3.32-24.08,9.88v-8.26h-16.68v72.67h16.68v-39.13c0-13.68,10.39-19.8,20.69-19.8,14.79,0,17,12.41,17,19.8v39.13h16.68v-39.28c0-9.88-2.42-18.31-7-24.38-5.31-7.05-13.15-10.62-23.29-10.62Z"/>
        <polygon class="cls-2" points="563.79 551.34 542.27 626.24 518.31 551.34 498.24 551.34 474.28 626.38 452.76 551.34 434.53 551.34 463.02 646.26 484.86 646.26 508.41 573.72 531.39 646.26 553.53 646.26 582.02 551.34 563.79 551.34"/>
        <path class="cls-2" d="M615.98,572.12c-23.77,0-38.54,14.54-38.54,37.95s14.77,37.66,38.54,37.66,38.4-14.43,38.4-37.66-14.71-37.95-38.4-37.95ZM615.98,632.23c-8,0-21.42-2.9-21.42-22.31s13.42-22.31,21.42-22.31c9.71,0,21.28,3.87,21.28,22.31s-11.57,22.31-21.28,22.31Z"/>
        <path class="cls-2" d="M687.77,583.97c-1-6.89-5.71-10.38-14.03-10.38h-11.29v14.76h5.69c2.08,0,3.01,1.02,3.01,3.3v54.6h16.68v-35.45c0-10.13,6.4-20.39,18.62-20.39h6.42v-16.97h-8.04c-7.25,0-13.82,4.18-17.06,10.53Z"/>
        <rect class="cls-2" x="722.42" y="540.88" width="16.68" height="105.38"/>
        <path class="cls-2" d="M811.86,540.59v41.36c-5.93-6.27-14.79-9.82-24.67-9.82s-18.7,3.29-24.93,9.52c-6.69,6.69-10.22,16.52-10.22,28.43s3.53,21.67,10.21,28.29c6.19,6.13,14.76,9.37,24.8,9.37s18.92-3.42,24.81-9.67v8.2h16.68v-105.67h-16.68ZM791.17,632.23c-8.28,0-22.16-2.88-22.16-22.16s13.88-22.46,22.16-22.46c15.27,0,20.69,12.1,20.69,22.46,0,13.67-7.93,22.16-20.69,22.16Z"/>
      </g>
    </g>
  </g>
</svg>