<?xml version="1.0" encoding="UTF-8"?>
<svg id="Layer_2" data-name="Layer 2" xmlns="http://www.w3.org/2000/svg" xmlns:xlink="http://www.w3.org/1999/xlink" viewBox="0 0 915.71 343.64">
  <defs>
    <style>
      .cls-1 {
        fill: url(#linear-gradient-2);
      }

      .cls-2 {
        fill: url(#linear-gradient-4);
      }

      .cls-3 {
        fill: url(#linear-gradient-3);
      }

      .cls-4 {
        fill: url(#linear-gradient-5);
      }

      .cls-5 {
        fill: url(#linear-gradient-6);
      }

      .cls-6 {
        fill: url(#linear-gradient);
      }
    </style>
    <linearGradient id="linear-gradient" x1="52.37" y1="300.86" x2="97.33" y2="155.13" gradientUnits="userSpaceOnUse">
      <stop offset="0" stop-color="#c09538"/>
      <stop offset=".22" stop-color="#cf9e2b"/>
      <stop offset=".37" stop-color="#d5a639"/>
      <stop offset=".57" stop-color="#e1b754"/>
    </linearGradient>
    <linearGradient id="linear-gradient-2" x1="147.22" y1="121.22" x2="213.11" y2="7.09" gradientUnits="userSpaceOnUse">
      <stop offset=".07" stop-color="#e9c474"/>
      <stop offset=".18" stop-color="#ecd08a"/>
      <stop offset=".38" stop-color="#f6eebd"/>
      <stop offset=".43" stop-color="#efe2aa"/>
      <stop offset=".67" stop-color="#d0ad56"/>
      <stop offset=".78" stop-color="#c49835"/>
    </linearGradient>
    <linearGradient id="linear-gradient-3" x1="203.73" y1="277.36" x2="279.17" y2="146.69" gradientUnits="userSpaceOnUse">
      <stop offset="0" stop-color="#c09538"/>
      <stop offset=".13" stop-color="#cf9e2b"/>
      <stop offset=".33" stop-color="#f3c86d"/>
      <stop offset=".36" stop-color="#f0c569"/>
      <stop offset=".58" stop-color="#e1b754"/>
      <stop offset=".84" stop-color="#fbf8d0"/>
      <stop offset=".9" stop-color="#faf6cd"/>
      <stop offset=".93" stop-color="#f8f2c6"/>
      <stop offset=".95" stop-color="#f6ebba"/>
      <stop offset=".96" stop-color="#f2e1a8"/>
      <stop offset=".98" stop-color="#edd591"/>
      <stop offset=".99" stop-color="#e7c575"/>
      <stop offset="1" stop-color="#e1b659"/>
    </linearGradient>
    <linearGradient id="linear-gradient-4" x1="66.06" y1="267.23" x2="194.42" y2="44.91" gradientUnits="userSpaceOnUse">
      <stop offset="0" stop-color="#c09538"/>
      <stop offset=".23" stop-color="#cf9e2b"/>
      <stop offset=".41" stop-color="#f3c86d"/>
      <stop offset=".59" stop-color="#e1b754"/>
      <stop offset=".8" stop-color="#fbf8d0"/>
      <stop offset=".96" stop-color="#c89d3e"/>
    </linearGradient>
    <linearGradient id="linear-gradient-5" x1="-94.94" y1="887.92" x2="141.43" y2="609.99" gradientTransform="translate(88.58 -569.25) rotate(-4.38)" gradientUnits="userSpaceOnUse">
      <stop offset="0" stop-color="#c09538"/>
      <stop offset=".34" stop-color="#cf9e2b"/>
      <stop offset=".67" stop-color="#fbf8d0"/>
      <stop offset=".67" stop-color="#faf7ce"/>
      <stop offset=".7" stop-color="#f2e4ab"/>
      <stop offset=".73" stop-color="#ebd48e"/>
      <stop offset=".76" stop-color="#e6c878"/>
      <stop offset=".8" stop-color="#e2bf68"/>
      <stop offset=".84" stop-color="#e0ba5e"/>
      <stop offset=".9" stop-color="#e0b95c"/>
      <stop offset=".93" stop-color="#d4ab4c"/>
      <stop offset=".97" stop-color="#c79d3b"/>
      <stop offset="1" stop-color="#c39836"/>
    </linearGradient>
    <linearGradient id="linear-gradient-6" x1="237.12" y1="309.28" x2="237.12" y2="97.3" gradientUnits="userSpaceOnUse">
      <stop offset="0" stop-color="#c09538"/>
      <stop offset=".16" stop-color="#cf9e2b"/>
      <stop offset=".38" stop-color="#f3c86d"/>
      <stop offset=".56" stop-color="#fbf8d0"/>
      <stop offset=".58" stop-color="#f8f1c3"/>
      <stop offset=".76" stop-color="#e9c879"/>
      <stop offset=".84" stop-color="#e4b95d"/>
      <stop offset=".99" stop-color="#c99d3d"/>
    </linearGradient>
  </defs>
  <g id="Layer_1-2" data-name="Layer 1">
    <g>
      <g>
        <path class="cls-6" d="M96.55,253.59c-22.79-20.99-35.87-50.8-35.87-81.77,0-12.38,2.03-24.51,6.04-36.14h-27.54c-3.2,11.71-4.82,23.86-4.82,36.14,0,52.5,30.43,100.87,77.66,123.74l13.16-22.81c-10.43-4.82-20.06-11.26-28.63-19.16Z"/>
        <path class="cls-1" d="M171.81,34.36c-38.37,0-74.88,16.06-100.94,44.26h201.89c-26.03-28.19-62.55-44.26-100.94-44.26Z"/>
        <path class="cls-3" d="M269.89,171.82c0-11.78-2.03-23.21-6.04-33.98l-75.44,130.67c46.74-7.86,81.48-48.68,81.48-96.7Z"/>
        <path class="cls-2" d="M171.93,270.94l85.78-148.59,5.08-8.79,12.64-21.88H60.2c-6.91,9.59-12.53,19.98-16.72,30.93h90.74l-1.82,3.17-1.63,2.84-3.48,6-.61,1.06h-46.05c-4.57,11.42-6.88,23.57-6.88,36.14,0,27.34,11.54,53.65,31.66,72.16,7.85,7.24,16.71,13.09,26.36,17.4l79.49-137.7.62-1.06h15.09l-1.83,3.18-82.26,142.46-4.52,7.8-14.25,24.68c8.63,3.21,17.57,5.53,26.62,6.92l16.12-27.93,5.08-8.79ZM179.53,125.8l-53.61,92.87-.61,1.06h-15.08l1.83-3.17,53.61-92.87.61-1.06h15.08l-1.83,3.18Z"/>
        <path class="cls-4" d="M158.7.51C64.08,7.76-6.74,90.33.51,184.94c7.25,94.61,89.82,165.43,184.43,158.19,94.61-7.25,165.42-89.82,158.18-184.43C335.87,64.08,253.3-6.74,158.7.51ZM183.31,321.9c-82.75,6.34-155.23-55.83-161.57-138.59C15.4,100.55,77.56,28.07,160.31,21.73c23.88-1.83,48.1,2.13,70.05,11.44,21.22,9.02,40.43,23.03,55.52,40.54.24.28.49.57.72.85,20.65,24.28,32.85,53.94,35.29,85.76,6.34,82.75-55.83,155.24-138.59,161.58Z"/>
        <path class="cls-5" d="M287.26,97.3l-15.25,26.39c7.16,14.89,10.94,31.51,10.94,48.13,0,28.44-10.66,55.47-30.01,76.1-19.05,20.32-44.82,32.62-72.69,34.71l-15.29,26.48c2.23.11,4.52.17,6.84.17,75.8,0,137.46-61.66,137.46-137.46,0-26.62-7.6-52.3-22.01-74.52Z"/>
      </g>
      <g>
        <g>
          <path d="M465.1,82.32c-11.42-2.28-24.53-6.37-24.53-17.76,0-8.78,7.53-13.05,23.01-13.05,11.62,0,25.26,5.24,25.45,20.01v1.04h21.98l.04-1.01c.44-10.52-2.62-19.29-9.11-26.05-8.39-8.75-22.08-13.57-38.55-13.57-12.94,0-23.91,2.56-31.71,7.39-9.59,5.95-14.45,15.13-14.45,27.3,0,24.25,21.39,31.83,37.47,35.42.99.22,2.04.45,3.15.7,12.72,2.77,31.93,6.96,31.93,20.65,0,9.03-8.32,13.42-25.45,13.42-15.09,0-26.56-8.43-27.9-20.49l-.1-.94h-22.68v1.07c.4,27.72,25.65,40.13,50.5,40.13,9.45,0,22.96-1.34,33.6-7.74,10.21-6.13,15.38-15.39,15.38-27.52,0-28.48-27.75-34.56-48.02-39Z"/>
          <path d="M568.46,59.93c-29.05,0-47.1,18.55-47.1,48.42s18.55,48.23,48.42,48.23c25.21,0,41.41-11.77,44.46-32.29l.18-1.21h-21.61l-.18.83c-1.35,6.14-6.4,13.46-22.84,13.46-15.19,0-24.07-7.76-26.42-23.08h71.83v-6.69c0-14.01-4.22-25.88-12.2-34.32-8.26-8.73-20.2-13.35-34.53-13.35ZM544.64,96.77c3.6-12.77,10.58-18.01,23.82-18.01,14.82,0,20.24,7.14,23.42,18.01h-47.24Z"/>
          <polygon points="665.25 130.21 639.1 61.81 617.49 61.81 652.87 154.51 677.63 154.51 712.83 61.81 691.41 61.81 665.25 130.21"/>
          <path d="M761.48,59.93c-29.05,0-47.1,18.55-47.1,48.42s18.55,48.23,48.42,48.23c25.21,0,41.41-11.77,44.46-32.29l.18-1.21h-21.61l-.18.83c-1.35,6.14-6.4,13.46-22.84,13.46-15.19,0-24.07-7.76-26.42-23.08h71.83v-6.69c0-14.01-4.22-25.88-12.2-34.32-8.26-8.73-20.2-13.35-34.53-13.35ZM737.67,96.77c3.6-12.77,10.58-18.01,23.82-18.01,14.82,0,20.24,7.14,23.42,18.01h-47.24Z"/>
          <path d="M876.51,59.74c-12.92,0-23.24,4.24-30.71,12.61v-10.54h-21.27v92.7h21.27v-49.92c0-17.45,13.25-25.26,26.39-25.26,18.87,0,21.69,15.83,21.69,25.26v49.92h21.27v-50.11c0-12.6-3.09-23.36-8.93-31.11-6.78-8.99-16.77-13.55-29.71-13.55Z"/>
        </g>
        <g>
          <polygon points="577.99 196.56 550.53 292.1 519.97 196.56 494.37 196.56 463.81 292.28 436.35 196.56 413.09 196.56 449.44 317.63 477.3 317.63 507.35 225.11 536.66 317.63 564.9 317.63 601.25 196.56 577.99 196.56"/>
          <path d="M644.57,223.06c-30.33,0-49.17,18.55-49.17,48.42s18.84,48.04,49.17,48.04,48.98-18.41,48.98-48.04-18.77-48.42-48.98-48.42ZM644.57,299.74c-10.21,0-27.33-3.7-27.33-28.46s17.12-28.46,27.33-28.46c12.38,0,27.14,4.94,27.14,28.46s-14.76,28.46-27.14,28.46Z"/>
          <path d="M736.14,238.18c-1.28-8.79-7.28-13.24-17.9-13.24h-14.4v18.83h7.25c2.65,0,3.84,1.3,3.84,4.21v69.66h21.27v-45.22c0-12.93,8.16-26.01,23.76-26.01h8.19v-21.65h-10.26c-9.25,0-17.62,5.33-21.76,13.43Z"/>
          <rect x="780.34" y="183.21" width="21.27" height="134.42"/>
          <path d="M894.43,182.83v52.76c-7.57-8-18.86-12.53-31.47-12.53s-23.86,4.2-31.8,12.15c-8.53,8.53-13.04,21.07-13.04,36.27s4.5,27.64,13.02,36.08c7.89,7.82,18.83,11.96,31.64,11.96s24.14-4.36,31.65-12.34v10.46h21.27v-134.8h-21.27ZM868.04,299.74c-10.56,0-28.27-3.67-28.27-28.27s17.71-28.65,28.27-28.65c19.48,0,26.39,15.43,26.39,28.65,0,17.44-10.11,28.27-26.39,28.27Z"/>
        </g>
      </g>
    </g>
  </g>
</svg>