<?xml version="1.0" encoding="UTF-8"?>
<svg id="Layer_2" data-name="Layer 2" xmlns="http://www.w3.org/2000/svg" xmlns:xlink="http://www.w3.org/1999/xlink" viewBox="0 0 835.22 653.11">
  <defs>
    <style>
      .cls-1 {
        fill: url(#linear-gradient-2);
      }

      .cls-2 {
        fill: url(#linear-gradient-4);
      }

      .cls-3 {
        fill: url(#linear-gradient-3);
      }

      .cls-4 {
        fill: url(#linear-gradient-5);
      }

      .cls-5 {
        fill: url(#linear-gradient-6);
      }

      .cls-6 {
        fill: url(#linear-gradient);
      }
    </style>
    <linearGradient id="linear-gradient" x1="248.59" y1="425.74" x2="312.22" y2="219.51" gradientUnits="userSpaceOnUse">
      <stop offset="0" stop-color="#c09538"/>
      <stop offset=".22" stop-color="#cf9e2b"/>
      <stop offset=".37" stop-color="#d5a639"/>
      <stop offset=".57" stop-color="#e1b754"/>
    </linearGradient>
    <linearGradient id="linear-gradient-2" x1="382.8" y1="171.52" x2="476.04" y2="10.03" gradientUnits="userSpaceOnUse">
      <stop offset=".07" stop-color="#e9c474"/>
      <stop offset=".18" stop-color="#ecd08a"/>
      <stop offset=".38" stop-color="#f6eebd"/>
      <stop offset=".43" stop-color="#efe2aa"/>
      <stop offset=".67" stop-color="#d0ad56"/>
      <stop offset=".78" stop-color="#c49835"/>
    </linearGradient>
    <linearGradient id="linear-gradient-3" x1="462.77" y1="392.47" x2="569.53" y2="207.57" gradientUnits="userSpaceOnUse">
      <stop offset="0" stop-color="#c09538"/>
      <stop offset=".13" stop-color="#cf9e2b"/>
      <stop offset=".33" stop-color="#f3c86d"/>
      <stop offset=".36" stop-color="#f0c569"/>
      <stop offset=".58" stop-color="#e1b754"/>
      <stop offset=".84" stop-color="#fbf8d0"/>
      <stop offset=".9" stop-color="#faf6cd"/>
      <stop offset=".93" stop-color="#f8f2c6"/>
      <stop offset=".95" stop-color="#f6ebba"/>
      <stop offset=".96" stop-color="#f2e1a8"/>
      <stop offset=".98" stop-color="#edd591"/>
      <stop offset=".99" stop-color="#e7c575"/>
      <stop offset="1" stop-color="#e1b659"/>
    </linearGradient>
    <linearGradient id="linear-gradient-4" x1="267.97" y1="378.14" x2="449.59" y2="63.55" gradientUnits="userSpaceOnUse">
      <stop offset="0" stop-color="#c09538"/>
      <stop offset=".23" stop-color="#cf9e2b"/>
      <stop offset=".41" stop-color="#f3c86d"/>
      <stop offset=".59" stop-color="#e1b754"/>
      <stop offset=".8" stop-color="#fbf8d0"/>
      <stop offset=".96" stop-color="#c89d3e"/>
    </linearGradient>
    <linearGradient id="linear-gradient-5" x1="-56.77" y1="1196.46" x2="277.71" y2="803.18" gradientTransform="translate(227.06 -739.78) rotate(-4.38)" gradientUnits="userSpaceOnUse">
      <stop offset="0" stop-color="#c09538"/>
      <stop offset=".34" stop-color="#cf9e2b"/>
      <stop offset=".67" stop-color="#fbf8d0"/>
      <stop offset=".67" stop-color="#faf7ce"/>
      <stop offset=".7" stop-color="#f2e4ab"/>
      <stop offset=".73" stop-color="#ebd48e"/>
      <stop offset=".76" stop-color="#e6c878"/>
      <stop offset=".8" stop-color="#e2bf68"/>
      <stop offset=".84" stop-color="#e0ba5e"/>
      <stop offset=".9" stop-color="#e0b95c"/>
      <stop offset=".93" stop-color="#d4ab4c"/>
      <stop offset=".97" stop-color="#c79d3b"/>
      <stop offset="1" stop-color="#c39836"/>
    </linearGradient>
    <linearGradient id="linear-gradient-6" x1="510.02" y1="437.64" x2="510.02" y2="137.68" gradientUnits="userSpaceOnUse">
      <stop offset="0" stop-color="#c09538"/>
      <stop offset=".16" stop-color="#cf9e2b"/>
      <stop offset=".38" stop-color="#f3c86d"/>
      <stop offset=".56" stop-color="#fbf8d0"/>
      <stop offset=".58" stop-color="#f8f1c3"/>
      <stop offset=".76" stop-color="#e9c879"/>
      <stop offset=".84" stop-color="#e4b95d"/>
      <stop offset=".99" stop-color="#c99d3d"/>
    </linearGradient>
  </defs>
  <g id="Layer_1-2" data-name="Layer 1">
    <g>
      <g>
        <path class="cls-6" d="M311.11,358.84c-32.25-29.71-50.75-71.89-50.75-115.71,0-17.51,2.88-34.69,8.55-51.14h-38.98c-4.53,16.57-6.82,33.76-6.82,51.14,0,74.29,43.06,142.73,109.9,175.1l18.62-32.28c-14.76-6.82-28.38-15.93-40.52-27.11Z"/>
        <path class="cls-1" d="M417.6,48.62c-54.29,0-105.97,22.73-142.84,62.63h285.68c-36.83-39.88-88.51-62.63-142.84-62.63Z"/>
        <path class="cls-3" d="M556.39,243.13c0-16.68-2.88-32.84-8.54-48.08l-106.75,184.91c66.14-11.12,115.29-68.89,115.29-136.83Z"/>
        <path class="cls-2" d="M417.77,383.39l121.39-210.26,7.19-12.43,17.88-30.96h-304.55c-9.78,13.57-17.73,28.27-23.66,43.77h128.4l-2.58,4.49-2.31,4.01-4.92,8.49-.86,1.49h-65.16c-6.46,16.16-9.74,33.35-9.74,51.14,0,38.69,16.33,75.91,44.79,102.11,11.11,10.25,23.64,18.53,37.3,24.62l112.49-194.85.87-1.51h21.36l-2.59,4.5-116.41,201.59-6.4,11.04-20.16,34.93c12.21,4.54,24.86,7.82,37.66,9.79l22.82-39.53,7.19-12.43ZM428.52,178.01l-75.86,131.42-.86,1.49h-21.33l2.59-4.49,75.86-131.42.86-1.51h21.33l-2.59,4.5Z"/>
        <path class="cls-4" d="M399.05.72c-133.88,10.26-234.1,127.09-223.84,260.98,10.25,133.87,127.09,234.09,260.98,223.84,133.87-10.25,234.08-127.1,223.83-260.98C649.76,90.68,532.92-9.53,399.05.72ZM433.87,455.5c-117.1,8.97-219.66-79-228.63-196.1-8.97-117.11,78.99-219.68,196.09-228.65,33.79-2.59,68.06,3.02,99.13,16.19,30.03,12.76,57.21,32.59,78.56,57.37.34.39.7.81,1.01,1.2,29.22,34.36,46.48,76.32,49.93,121.36,8.97,117.1-79,219.67-196.1,228.64Z"/>
        <path class="cls-5" d="M580.98,137.68l-21.57,37.34c10.13,21.07,15.48,44.59,15.48,68.11,0,40.24-15.09,78.49-42.46,107.68-26.96,28.75-63.42,46.16-102.86,49.12l-21.63,37.47c3.15.16,6.39.24,9.68.24,107.25,0,194.51-87.26,194.51-194.51,0-37.66-10.75-74.01-31.14-105.45Z"/>
      </g>
      <g>
        <path d="M40.66,594.43c-9.02-1.81-19.38-5.03-19.38-14.04,0-6.94,5.95-10.31,18.18-10.31,9.18,0,19.96,4.14,20.11,15.82v.82h17.37l.03-.8c.35-8.31-2.07-15.24-7.2-20.59-6.63-6.92-17.45-10.73-30.46-10.73-10.23,0-18.89,2.02-25.06,5.84-7.58,4.7-11.42,11.96-11.42,21.58,0,19.16,16.9,25.15,29.61,27.99.78.18,1.61.36,2.49.55,10.05,2.19,25.23,5.5,25.23,16.32,0,7.14-6.58,10.61-20.11,10.61-11.92,0-20.99-6.66-22.05-16.19l-.08-.74H0v.84c.32,21.91,20.27,31.71,39.91,31.71,7.47,0,18.14-1.06,26.55-6.12,8.07-4.85,12.16-12.17,12.16-21.75,0-22.51-21.93-27.31-37.95-30.82Z"/>
        <path d="M122.34,576.73c-22.96,0-37.22,14.66-37.22,38.26s14.66,38.11,38.26,38.11c19.92,0,32.72-9.3,35.13-25.51l.14-.95h-17.08l-.14.65c-1.06,4.85-5.06,10.64-18.05,10.64-12,0-19.02-6.14-20.88-18.24h56.76v-5.29c0-11.07-3.33-20.45-9.64-27.12-6.52-6.9-15.96-10.55-27.28-10.55ZM103.52,605.85c2.84-10.09,8.36-14.23,18.82-14.23,11.71,0,16,5.65,18.51,14.23h-37.33Z"/>
        <polygon points="198.83 632.27 178.16 578.22 161.09 578.22 189.05 651.47 208.61 651.47 236.43 578.22 219.5 578.22 198.83 632.27"/>
        <path d="M274.88,576.73c-22.96,0-37.22,14.66-37.22,38.26s14.66,38.11,38.26,38.11c19.92,0,32.72-9.3,35.13-25.51l.14-.95h-17.08l-.14.65c-1.06,4.85-5.06,10.64-18.05,10.64-12,0-19.02-6.14-20.88-18.24h56.76v-5.29c0-11.07-3.33-20.45-9.64-27.12-6.52-6.9-15.96-10.55-27.28-10.55ZM256.06,605.85c2.84-10.09,8.36-14.23,18.82-14.23,11.71,0,16,5.65,18.51,14.23h-37.33Z"/>
        <path d="M365.78,576.59c-10.21,0-18.37,3.35-24.27,9.96v-8.33h-16.81v73.25h16.81v-39.45c0-13.79,10.47-19.96,20.85-19.96,14.91,0,17.14,12.51,17.14,19.96v39.45h16.81v-39.6c0-9.96-2.44-18.46-7.06-24.58-5.36-7.11-13.26-10.71-23.48-10.71Z"/>
        <polygon points="568.34 555.79 546.64 631.29 522.49 555.79 502.26 555.79 478.11 631.44 456.41 555.79 438.03 555.79 466.75 651.47 488.77 651.47 512.52 578.35 535.68 651.47 558 651.47 586.72 555.79 568.34 555.79"/>
        <path d="M620.95,576.73c-23.97,0-38.86,14.66-38.86,38.26s14.89,37.96,38.86,37.96,38.71-14.55,38.71-37.96-14.83-38.26-38.71-38.26ZM620.95,637.33c-8.07,0-21.6-2.92-21.6-22.49s13.53-22.49,21.6-22.49c9.78,0,21.45,3.9,21.45,22.49s-11.66,22.49-21.45,22.49Z"/>
        <path d="M693.32,588.68c-1.01-6.95-5.75-10.46-14.14-10.46h-11.38v14.88h5.73c2.1,0,3.03,1.03,3.03,3.33v55.05h16.81v-35.74c0-10.22,6.45-20.56,18.78-20.56h6.48v-17.11h-8.11c-7.31,0-13.93,4.21-17.2,10.61Z"/>
        <rect x="728.25" y="545.24" width="16.81" height="106.23"/>
        <path d="M818.41,544.95v41.69c-5.98-6.32-14.91-9.9-24.87-9.9s-18.85,3.32-25.13,9.6c-6.74,6.74-10.31,16.65-10.31,28.66s3.56,21.84,10.29,28.51c6.24,6.18,14.88,9.45,25,9.45s19.07-3.44,25.01-9.75v8.26h16.81v-106.53h-16.81ZM797.55,637.33c-8.34,0-22.34-2.9-22.34-22.34s14-22.64,22.34-22.64c15.39,0,20.85,12.19,20.85,22.64,0,13.78-7.99,22.34-20.85,22.34Z"/>
      </g>
    </g>
  </g>
</svg>