<?xml version="1.0" encoding="UTF-8"?>
<svg xmlns="http://www.w3.org/2000/svg" width="895" height="924"
     viewBox="0 0 895 924" preserveAspectRatio="xMidYMid meet">
  <defs>
    <linearGradient id="vnGold" x1="0" y1="0" x2="0" y2="1">
      <stop offset="0" stop-color="#E8C56E"/>
      <stop offset="1" stop-color="#C39837"/>
    </linearGradient>
  </defs>

  <!-- Surrounding countries - light grey landmasses (Natural Earth 50m,
       equirectangular, clipped to the view). Drawn first so they sit behind. -->
  <g fill="#DAD8D2" stroke="#C3C0B8" stroke-width="5"
     stroke-linejoin="round" stroke-linecap="round">
    <path d="M817 22L816 25L813 24L813 22L813 20L817 21L817 22ZM485 172L487 173L491 172L492 174L490 177L487 176L483 176L481 176L480 175L482 173L485 172ZM620 97L620 99L617 96L616 95L615 94L614 92L616 92L619 95L620 97ZM587 150L587 150L585 149L585 147L584 145L586 144L587 142L590 142L591 143L588 145L588 145L587 150ZM581 148L577 149L578 146L581 145L581 148ZM382 154L379 151L375 148L373 147L368 149L361 150L359 148L356 149L352 145L348 144L343 141L342 139L341 137L340 135L338 136L335 134L332 133L329 132L328 133L326 133L326 131L326 126L326 121L325 119L323 118L322 117L321 115L322 110L323 107L325 106L328 104L330 101L331 98L325 94L321 92L317 93L313 94L310 94L309 94L306 90L305 89L301 89L298 89L297 91L294 91L292 91L289 89L285 87L279 85L278 83L277 80L274 78L271 74L267 73L266 74L264 76L255 79L252 81L250 82L248 84L248 88L247 92L245 94L242 96L240 96L238 96L235 97L229 101L226 101L223 98L222 96L219 97L215 99L214 103L213 106L212 108L211 108L209 108L198 98L197 98L195 100L193 105L191 106L190 106L186 99L184 98L183 98L182 101L179 104L176 106L176 108L174 110L171 112L170 112L168 111L165 109L163 106L159 103L153 101L150 99L148 99L146 100L145 101L144 104L141 108L138 111L135 114L133 115L132 114L129 113L125 113L121 115L118 110L117 110L115 111L114 112L113 114L112 118L109 120L108 121L108 123L109 125L109 127L110 130L111 132L115 137L117 140L117 142L117 149L117 153L116 159L116 162L118 164L119 166L119 167L116 169L115 169L114 169L112 168L110 167L108 166L104 166L97 168L96 167L95 166L94 164L95 161L94 159L93 158L94 153L91 151L91 145L91 144L89 143L86 144L78 147L71 154L68 155L65 156L62 155L58 154L52 156L49 155L48 154L46 151L47 149L47 147L44 146L42 145L40 143L39 140L40 136L40 133L39 131L35 130L25 128L17 127L13 128L10 127L8 126L7 125L7 124L9 120L10 116L14 110L15 106L14 102L16 96L20 91L22 90L21 88L20 86L18 85L15 84L9 83L2 82L0 81L0 0L850 0L848 3L844 4L840 7L837 7L837 8L839 10L840 11L837 17L833 18L827 18L822 19L818 16L813 16L810 19L810 23L807 23L805 23L803 23L803 25L804 27L810 27L812 30L812 33L805 39L803 43L798 43L795 47L794 51L791 50L787 51L785 53L786 54L786 56L785 61L782 62L782 60L781 57L779 57L776 60L773 62L770 63L768 61L763 60L761 68L757 71L755 72L751 72L753 74L754 76L753 78L749 78L747 80L746 88L744 90L739 91L735 89L734 90L733 92L731 93L727 93L718 97L714 96L709 94L705 96L704 98L703 100L698 100L694 98L690 96L685 98L682 101L678 102L677 104L675 105L671 104L669 99L667 99L664 101L663 103L662 105L663 109L660 109L657 106L653 106L650 108L649 108L647 107L644 107L643 108L641 108L640 109L636 109L632 105L629 100L625 97L623 94L622 89L621 87L622 85L623 82L619 84L615 86L616 88L615 91L610 92L611 93L611 94L615 97L616 100L617 102L620 106L620 114L621 117L621 119L620 122L619 121L617 121L617 122L617 123L614 124L612 125L610 126L608 128L603 129L600 123L597 127L596 135L594 136L592 137L588 134L585 136L582 138L581 140L579 142L575 140L572 137L573 135L572 134L571 133L569 133L570 136L570 141L569 142L567 143L562 142L559 141L555 139L551 139L551 142L548 144L546 145L544 144L542 147L540 149L537 151L528 152L525 155L521 154L517 155L515 155L514 154L512 153L511 157L506 159L501 159L496 164L493 167L490 167L488 166L487 162L486 161L486 165L485 168L483 170L477 174L475 178L476 182L484 183L485 185L484 187L482 188L482 190L490 197L491 200L489 201L488 204L483 207L474 208L466 207L464 204L464 202L466 202L468 202L467 200L466 199L463 197L460 193L460 189L459 186L457 183L455 182L454 180L456 174L455 170L458 166L459 161L465 159L466 155L461 155L458 151L458 153L455 153L451 146L450 146L448 145L449 152L445 155L441 156L435 156L432 157L429 157L430 155L432 152L430 150L427 148L423 149L419 148L416 148L415 147L412 144L410 142L408 140L410 138L409 136L404 136L404 140L404 143L406 146L405 148L402 149L400 146L398 145L397 145L396 149L394 151L390 151L386 153L382 154ZM506 220L509 222L510 225L511 230L512 235L507 238L504 239L496 251L494 255L493 256L493 258L493 260L491 265L489 272L488 275L486 277L483 278L481 279L479 279L475 283L471 286L471 287L471 288L469 290L467 289L461 291L458 293L456 297L455 297L451 298L448 298L443 296L441 295L434 294L427 292L423 290L413 284L412 275L411 270L410 268L411 252L412 251L413 249L417 246L422 243L429 237L434 234L438 231L435 231L434 230L435 227L437 225L439 224L444 225L448 224L451 221L454 221L465 222L472 220L476 218L478 218L483 218L485 221L485 219L485 217L486 218L494 221L494 217L494 216L496 214L497 214L500 217L503 219L506 220Z"/>
    <path d="M154 586L153 591L150 589L151 587L152 586L154 586ZM146 572L146 574L144 573L143 573L141 573L139 567L140 565L141 566L144 569L145 571L146 572ZM48 206L47 209L49 209L50 208L52 205L54 203L56 203L58 205L61 209L64 212L65 212L66 214L66 216L65 220L62 225L60 231L60 236L64 240L69 242L74 241L77 240L79 238L81 237L84 237L92 239L94 240L95 243L94 250L95 255L97 260L97 265L95 273L92 281L90 285L88 287L87 289L87 290L89 292L91 295L92 298L91 302L90 307L85 317L81 326L83 328L87 330L90 331L92 330L98 325L103 320L109 316L114 313L117 310L118 307L120 305L122 306L126 304L129 301L132 299L134 299L138 301L143 306L147 309L151 310L153 311L153 314L154 315L156 316L157 315L158 313L162 310L166 309L170 309L173 307L174 302L177 298L179 297L182 296L182 295L181 293L181 292L183 290L186 289L191 290L197 291L204 294L209 295L211 294L215 298L221 309L227 316L231 321L236 325L241 328L245 332L248 339L245 349L245 357L245 368L248 375L253 381L257 386L258 389L262 392L270 394L273 397L272 399L271 401L273 403L275 406L280 407L282 409L283 411L283 414L282 419L280 422L277 424L277 426L276 429L276 434L278 438L279 443L278 447L277 455L277 458L276 461L274 463L270 466L266 468L263 469L261 472L259 474L257 474L256 473L255 471L254 468L250 466L246 465L238 467L231 468L223 467L215 468L212 468L209 468L205 468L202 468L196 465L194 466L189 467L184 469L179 469L172 473L167 478L165 482L162 485L159 491L154 496L151 499L152 500L151 502L146 503L142 503L141 504L142 515L143 520L146 525L147 527L149 536L149 543L155 547L158 550L160 553L159 555L158 561L159 568L167 584L168 585L165 582L162 577L160 571L156 565L153 563L152 565L151 567L146 564L142 561L139 555L138 556L138 557L134 553L129 549L125 547L123 546L121 544L116 542L104 545L89 542L83 545L81 543L79 541L81 536L81 526L83 520L82 515L83 512L84 509L81 508L71 505L68 503L65 505L53 507L48 509L43 512L42 517L45 520L46 526L42 538L41 542L43 556L42 564L40 570L36 575L34 583L31 587L27 596L24 607L22 612L21 621L12 635L10 643L7 646L8 648L8 652L7 663L7 672L8 676L12 686L11 688L11 692L14 694L17 695L31 690L36 691L37 695L39 699L41 718L42 722L45 726L48 729L49 729L49 727L50 726L52 729L55 736L62 773L64 777L66 782L61 780L60 772L59 768L57 768L55 768L55 766L56 764L56 760L54 758L49 760L49 766L51 770L58 780L61 784L63 785L68 784L72 788L76 792L86 798L92 797L98 796L102 796L106 798L111 803L119 815L132 825L131 828L130 832L125 837L124 840L122 844L119 846L116 846L114 846L113 845L111 841L110 840L109 840L102 843L96 845L95 848L93 851L91 852L90 852L89 850L86 848L84 846L85 843L88 838L89 835L88 829L87 825L86 825L85 825L80 825L77 821L76 817L75 816L73 815L69 816L67 815L57 812L54 806L52 806L50 806L49 808L48 814L48 817L37 803L30 797L31 787L28 785L26 785L24 782L25 776L23 778L19 777L15 776L13 767L11 765L8 760L3 760L2 758L2 753L0 751L0 621L1 620L8 611L15 599L19 592L20 589L22 588L24 586L26 583L26 582L22 568L20 564L18 558L18 555L17 551L17 548L16 546L13 543L9 539L7 533L7 530L5 527L5 523L6 520L8 518L7 506L7 503L6 496L4 492L1 486L0 486L0 223L1 218L2 217L3 216L6 215L8 215L12 216L14 217L17 216L19 215L21 213L21 212L21 209L19 205L23 205L27 206L31 206L33 205L35 203L38 201L41 202L43 203L48 206ZM46 673L45 674L44 673L43 671L42 669L44 669L46 671L46 673ZM46 678L46 681L45 684L41 685L40 683L40 679L41 678L44 679L46 678ZM28 813L26 810L28 805L30 811L28 813ZM3 766L4 771L3 770L2 768L2 764L3 766Z"/>
    <path d="M827 21L829 24L828 26L822 25L822 23L824 23L827 21Z"/>
    <path d="M895 431L893 425L892 421L890 403L890 402L889 400L886 398L885 396L884 394L885 385L886 383L887 382L890 383L892 385L894 387L895 387ZM780 729L776 732L777 728L778 724L782 717L785 714L789 708L792 705L799 700L804 693L806 693L809 693L810 692L814 689L824 677L832 669L840 658L844 655L845 654L853 644L855 643L858 642L860 641L862 639L864 635L865 630L865 627L863 623L865 617L866 615L872 603L873 601L876 602L876 604L875 609L875 612L876 614L874 618L878 629L881 636L881 638L877 642L875 643L870 644L868 646L864 649L862 653L861 656L860 657L850 660L845 662L843 664L842 666L842 670L834 685L831 689L828 693L824 695L819 697L815 700L812 705L809 709L805 713L800 716L796 718L791 720L790 722L789 724L787 725L784 726L780 729ZM770 753L768 756L765 753L766 747L766 746L770 745L770 753ZM891 639L886 640L885 636L888 632L892 633L895 635L894 636L891 639ZM895 572L893 569L890 564L889 563L889 561L890 560L890 559L891 558L893 560L895 561ZM895 586L893 587L892 586L892 583L892 582L889 574L891 573L893 574L894 575ZM895 874L893 877L889 877L887 877L887 874L894 870L895 870ZM889 593L890 595L888 599L887 599L886 598L883 597L883 595L884 595L887 593L889 593ZM895 561L895 561ZM782 739L779 740L778 737L779 734L781 734L782 735L782 739Z"/>
    <path d="M48 817L48 814L49 808L50 806L52 806L54 806L57 812L67 815L69 816L73 815L75 816L76 817L77 821L80 825L85 825L86 825L87 825L88 829L89 835L88 838L85 843L84 846L86 848L89 850L90 852L91 852L93 851L95 848L96 845L102 843L109 840L110 840L111 841L113 845L114 846L116 846L119 846L122 844L124 840L125 837L130 832L131 828L132 825L139 827L142 828L151 842L161 852L166 855L170 857L175 862L179 868L188 887L190 895L190 907L188 924L75 924L76 923L75 920L71 914L69 908L69 895L63 878L58 854L59 846L57 837L54 828L49 822L48 817ZM791 916L790 916L786 916L779 911L771 909L760 909L754 908L751 909L749 909L748 908L746 908L742 910L740 910L738 908L734 908L730 908L725 911L720 909L718 909L717 909L715 913L710 916L708 920L707 924L627 924L636 913L637 911L638 905L639 903L638 900L640 899L641 898L643 899L646 901L649 903L650 906L651 908L651 911L653 912L657 913L658 915L661 919L663 922L665 923L667 922L670 920L672 917L674 912L672 912L674 908L675 907L674 905L673 904L672 900L671 895L671 892L672 891L676 889L679 886L683 884L683 888L683 894L684 898L686 907L689 908L692 909L694 908L695 908L693 904L693 896L691 891L689 886L688 884L698 883L700 881L704 878L705 876L706 871L701 869L700 865L699 862L705 855L707 853L708 856L711 856L713 857L716 856L719 853L721 848L727 841L729 836L730 830L745 813L747 810L756 793L757 792L760 794L760 800L760 802L759 806L758 809L759 809L763 807L768 801L770 796L772 793L777 795L778 796L777 799L778 802L779 806L783 809L788 811L793 813L794 815L795 817L796 821L796 824L793 827L794 833L794 836L793 839L788 841L802 839L805 837L810 834L812 837L814 842L812 843L807 845L808 849L811 849L816 847L820 844L822 844L824 845L829 846L831 848L833 850L835 854L840 855L850 861L852 862L854 862L860 861L861 862L863 864L863 866L863 869L863 871L861 873L858 876L848 879L838 882L833 881L826 879L823 879L820 880L817 888L823 895L833 902L835 904L834 906L833 907L831 908L825 909L819 910L814 911L810 913L805 912L798 909L796 909L794 911L792 915L791 916ZM55 867L54 868L51 868L51 860L53 859L56 861L57 862L55 867ZM36 816L39 820L38 822L37 823L35 822L33 824L32 824L30 821L28 820L28 818L30 817L32 818L35 816L36 816ZM773 785L770 787L769 784L770 781L773 777L778 777L779 779L778 782L777 784L773 785ZM804 916L799 917L794 917L795 915L795 913L797 912L799 913L804 916Z"/>
    <path d="M133 115L136 120L141 124L147 131L149 134L153 136L154 139L155 142L155 145L156 146L157 147L159 146L161 145L162 141L163 140L164 144L165 144L167 145L168 146L169 148L168 151L167 154L166 157L165 161L164 164L165 167L175 181L179 183L190 186L194 188L197 189L201 188L204 184L208 182L215 179L217 178L221 180L228 184L233 188L236 190L238 192L237 194L236 196L233 197L230 199L229 201L230 201L234 202L239 204L241 206L241 207L242 210L243 211L248 210L249 211L251 213L253 216L253 219L249 222L248 224L247 227L245 231L238 237L236 237L224 234L218 234L216 234L214 234L214 236L215 239L216 243L214 245L210 248L209 249L208 251L210 252L213 254L218 255L232 265L235 267L239 270L244 273L255 276L260 278L262 279L262 281L260 283L259 286L259 288L260 290L263 293L267 298L270 300L273 300L275 301L278 305L281 309L281 312L282 315L285 320L289 324L294 329L297 332L298 334L310 342L312 346L316 352L318 353L320 354L321 357L321 360L321 367L323 370L325 372L326 374L328 376L330 376L332 374L334 373L334 373L336 379L338 380L341 382L344 384L350 390L353 392L356 393L358 394L358 396L357 398L356 399L349 403L348 405L349 407L351 410L353 413L355 415L360 420L365 423L367 426L369 429L368 432L366 435L364 437L362 439L361 441L362 444L363 446L363 448L363 453L361 455L358 459L357 460L353 458L352 459L350 462L345 466L343 466L342 465L340 467L338 470L337 470L333 470L332 469L330 467L327 465L324 463L322 462L321 460L320 459L317 461L313 464L310 463L308 463L306 467L305 468L299 468L297 469L298 472L302 478L304 482L301 487L294 487L291 485L288 482L287 480L278 477L272 479L271 479L268 477L266 475L264 473L263 470L263 469L266 468L270 466L274 463L276 461L277 458L277 455L278 447L279 443L278 438L276 434L276 429L277 426L277 424L280 422L282 419L283 414L283 411L282 409L280 407L275 406L273 403L271 401L272 399L273 397L270 394L262 392L258 389L257 386L253 381L248 375L245 368L245 357L245 349L248 339L245 332L241 328L236 325L231 321L227 316L221 309L215 298L211 294L209 295L204 294L197 291L191 290L186 289L183 290L181 292L181 293L182 295L182 296L179 297L177 298L174 302L173 307L170 309L166 309L162 310L158 313L157 315L157 316L154 315L153 314L153 311L151 310L147 309L143 306L138 301L134 299L132 299L129 301L126 304L122 306L120 305L118 307L117 310L114 313L109 316L103 320L98 325L92 330L90 331L87 330L83 328L81 326L85 317L90 307L91 302L92 298L91 295L89 292L87 290L87 289L88 287L90 285L92 281L95 273L97 265L97 260L95 255L94 250L95 243L94 240L92 239L84 237L81 237L79 238L77 240L74 241L69 242L64 240L60 236L60 231L62 225L65 220L66 216L66 214L65 212L64 212L61 209L58 205L56 203L54 203L52 205L50 208L49 209L47 209L48 206L48 204L50 194L53 188L56 185L60 184L64 184L67 184L69 182L66 181L65 179L65 176L67 174L69 173L71 170L73 165L75 162L78 162L82 160L89 155L91 151L94 153L93 158L94 159L95 161L94 164L95 166L96 167L97 168L104 166L108 166L110 167L112 168L114 169L115 169L116 169L119 167L119 166L118 164L116 162L116 159L117 153L117 149L117 142L117 140L115 137L111 132L110 130L109 127L109 125L108 123L108 121L109 120L112 118L113 114L114 112L115 111L117 110L118 110L121 115L125 113L129 113L132 114L133 115Z"/>
    <path d="M384 924L384 922L392 915L394 914L394 917L400 924ZM707 924L708 920L710 916L715 913L717 909L718 909L720 909L725 911L730 908L734 908L738 908L740 910L742 910L746 908L748 908L749 909L751 909L754 908L760 909L771 909L779 911L786 916L790 916L791 916L788 918L787 921L790 924ZM794 917L799 917L804 916L806 920L806 922L798 924L793 919L794 917Z"/>
    <path d="M363 453L364 455L362 460L360 464L356 468L356 470L355 478L355 481L356 483L357 484L360 492L363 499L366 505L367 509L364 518L361 527L361 531L363 535L364 541L364 548L364 553L362 556L360 559L358 561L355 558L353 558L350 559L348 560L343 564L338 569L331 570L328 573L325 573L319 574L316 574L316 576L316 584L316 585L313 586L308 585L303 583L298 583L296 586L295 587L293 587L292 588L291 590L291 591L292 595L292 600L292 603L294 605L302 613L305 614L305 615L304 619L305 625L302 625L298 623L296 621L293 622L292 622L290 619L288 616L285 616L280 617L275 618L273 618L272 619L269 623L268 622L262 621L258 620L257 621L257 624L258 628L258 629L255 631L251 634L249 636L248 637L242 637L237 637L235 640L233 641L231 642L224 636L210 634L209 632L207 631L206 634L199 638L195 636L193 633L193 631L196 628L199 627L201 621L198 613L196 611L193 610L190 612L188 617L185 619L182 620L177 620L175 613L174 607L175 600L176 596L171 590L171 585L168 582L168 583L168 585L167 584L159 568L158 561L159 555L160 553L158 550L155 547L149 543L149 536L147 527L146 525L143 520L142 515L141 504L142 503L146 503L151 502L152 500L151 499L154 496L159 491L162 485L165 482L167 478L172 473L179 469L184 469L189 467L194 466L196 465L202 468L205 468L209 468L212 468L215 468L223 467L231 468L238 467L246 465L250 466L254 468L255 471L256 473L257 474L259 474L261 472L263 469L263 470L264 473L266 475L268 477L271 479L272 479L278 477L287 480L288 482L291 485L294 487L301 487L304 482L302 478L298 472L297 469L299 468L305 468L306 467L308 463L310 463L313 464L317 461L320 459L321 460L322 462L324 463L327 465L330 467L332 469L333 470L337 470L338 470L340 467L342 465L343 466L345 466L350 462L352 459L353 458L357 460L358 459L361 455L363 453Z"/>
    <path d="M48 206L43 203L41 202L38 201L35 203L33 205L31 206L27 206L23 205L20 204L21 209L21 212L21 213L19 215L17 216L14 217L12 216L8 215L6 215L3 216L2 217L1 218L0 223L0 486L1 486L4 492L6 496L7 503L7 506L8 518L6 520L5 523L5 527L7 530L7 533L9 539L13 543L16 546L17 548L17 551L18 555L18 558L20 564L22 568L26 582L26 583L24 586L22 588L20 589L19 592L15 599L8 611L1 620L0 621L0 81L2 82L9 83L15 84L18 85L20 86L21 88L22 90L20 91L16 96L14 102L15 106L14 110L10 116L9 120L7 124L7 125L8 126L10 127L13 128L17 127L25 128L35 130L39 131L40 133L40 136L39 140L40 143L42 145L44 146L47 147L47 149L46 151L48 154L49 155L52 156L58 154L62 155L65 156L68 155L71 154L78 147L86 144L89 143L90 143L91 145L91 150L89 155L82 160L78 162L75 162L73 165L71 170L69 173L67 174L65 176L65 179L66 181L69 181L67 184L64 184L60 184L56 185L53 188L50 194L48 204L48 206Z"/>
    <path d="M688 884L689 886L691 891L693 896L693 904L695 907L694 908L692 909L689 908L686 907L684 898L683 894L683 888L683 884L688 884ZM683 884L679 886L676 889L672 891L671 892L671 895L672 900L673 904L674 905L675 907L674 908L672 912L674 912L672 917L670 920L667 922L665 923L663 922L661 919L658 915L657 913L653 912L651 911L651 908L650 906L649 903L646 901L643 899L642 898L647 898L652 897L657 895L662 892L666 889L671 885L675 882L681 879L684 879L684 882L683 884Z"/>
  </g>

  <!-- Vietnam - highlighted in brand gold, on top -->
  <path fill="url(#vnGold)" stroke="#A07F26" stroke-width="6"
        stroke-linejoin="round" stroke-linecap="round"
        d="M216 643L217 645L216 650L215 655L215 657L214 659L211 649L207 645L207 644L209 644L212 641L214 641L216 643ZM382 154L380 154L375 154L371 158L368 160L363 161L358 163L357 167L357 170L356 174L348 178L346 178L344 176L342 176L340 177L338 177L336 178L333 178L331 176L329 176L327 176L327 178L330 185L330 188L322 197L323 203L320 207L315 211L305 220L301 221L298 223L290 238L290 243L289 247L289 251L286 258L283 261L282 265L287 274L287 275L290 280L291 283L293 286L301 294L304 297L308 298L316 306L319 310L318 314L319 320L313 318L314 319L320 323L330 336L338 342L346 350L348 356L356 361L364 368L364 369L366 371L372 375L375 378L376 382L378 382L381 382L383 381L385 381L387 385L391 389L392 392L394 392L395 392L395 395L396 396L400 402L402 406L408 414L412 419L415 421L418 423L422 432L423 440L427 449L430 452L430 460L432 467L434 472L435 477L436 480L436 482L439 490L438 494L437 490L437 502L438 508L438 516L439 518L442 527L444 530L444 540L445 546L442 542L440 539L438 541L435 544L439 555L435 554L435 569L437 572L437 574L437 576L435 574L435 572L434 572L435 573L433 576L433 579L434 582L434 584L433 587L432 590L428 590L427 595L425 601L418 602L413 607L407 609L401 614L395 619L391 620L387 621L383 628L377 629L365 636L361 639L357 640L352 642L351 642L349 639L345 638L342 636L342 632L341 631L340 633L339 641L339 642L337 643L333 641L329 636L324 640L326 640L328 640L330 640L331 643L331 645L330 647L326 647L319 647L318 647L324 650L329 651L332 653L332 655L329 657L326 660L326 662L326 664L324 666L322 666L317 663L304 650L306 654L320 668L322 673L323 676L321 677L319 679L314 680L307 674L295 662L291 660L303 674L305 678L307 682L306 684L305 687L277 700L273 706L269 713L264 717L260 720L251 722L246 722L251 715L248 713L248 696L249 677L251 668L255 666L260 664L260 662L259 660L257 657L254 656L250 655L247 651L245 651L241 653L239 651L238 648L235 645L231 642L233 641L235 640L237 637L242 637L248 637L249 636L251 634L255 631L258 629L258 628L257 624L257 621L258 620L262 621L268 622L269 623L272 619L273 618L275 618L280 617L285 616L288 616L290 619L292 622L293 622L296 621L298 623L302 625L305 625L304 619L305 615L305 614L302 613L294 605L292 603L292 600L292 595L291 591L291 590L292 588L293 587L295 587L296 586L298 583L303 583L308 585L313 586L315 586L316 584L316 576L316 574L319 574L325 573L328 573L331 570L338 569L343 564L348 560L350 559L353 558L355 558L358 561L360 559L362 556L364 553L364 548L364 541L363 535L361 531L361 527L364 518L367 509L366 505L363 499L360 492L357 484L356 483L355 481L355 478L356 470L356 468L360 464L362 460L364 455L363 453L363 448L363 446L362 444L361 441L362 439L364 437L366 435L368 432L369 429L367 426L365 423L360 420L355 415L353 413L351 410L349 407L348 405L349 403L356 399L357 398L358 396L358 394L356 393L353 392L350 390L344 384L341 382L338 380L336 379L334 373L334 373L332 374L330 376L328 376L326 374L325 372L323 370L321 367L321 360L321 357L320 354L318 353L316 352L312 346L310 342L298 334L297 332L294 329L289 324L285 320L282 315L281 312L281 309L278 305L275 301L273 300L270 300L267 298L263 293L260 290L259 288L259 286L260 283L262 281L262 279L260 278L255 276L244 273L239 270L235 267L232 265L218 255L213 254L210 252L208 251L209 249L210 248L214 245L216 243L215 239L214 236L214 234L216 234L218 234L224 234L236 237L238 237L245 231L247 227L248 224L249 222L253 219L253 216L251 213L249 211L248 210L243 211L242 210L241 207L241 206L239 204L234 202L230 201L229 201L230 199L233 197L236 196L237 194L238 192L236 190L233 188L228 184L221 180L217 178L215 179L208 182L204 184L201 188L197 189L194 188L190 186L179 183L175 181L165 167L164 164L165 161L166 157L167 154L168 151L169 148L168 146L167 145L165 144L164 144L163 140L162 141L161 145L159 146L157 147L156 146L155 145L155 142L154 139L153 136L149 134L147 131L141 124L136 120L133 115L135 114L138 111L141 108L144 104L145 101L146 100L148 99L150 99L153 101L159 103L163 106L165 109L168 111L170 112L171 112L174 110L176 108L176 106L179 104L182 101L183 98L184 98L186 99L190 106L191 106L193 105L195 100L197 98L198 98L209 108L211 108L212 108L213 106L214 103L215 99L219 97L222 96L223 98L226 101L229 101L235 97L238 96L240 96L242 96L245 94L247 92L248 88L248 84L250 82L252 81L255 79L264 76L266 74L267 73L271 74L274 78L277 80L278 83L279 85L285 87L289 89L292 91L294 91L297 91L298 89L301 89L305 89L306 90L309 94L310 94L313 94L317 93L321 92L325 94L331 98L330 101L328 104L325 106L323 107L322 110L321 115L322 117L323 118L325 119L326 121L326 126L326 131L326 133L328 133L329 132L332 133L335 134L338 136L340 135L341 137L342 139L343 141L348 144L352 145L356 149L359 148L361 150L368 149L373 147L375 148L379 151L382 154ZM324 718L323 718L322 717L326 714L326 716L324 718ZM348 643L344 645L344 643L347 642L348 640L348 643ZM335 184L335 185L332 183L331 182L332 179L335 182L335 184ZM366 166L360 172L358 172L360 166L361 164L365 166L366 166ZM363 179L361 180L358 180L361 178L363 175L364 175L364 177L363 179ZM342 187L340 187L337 184L339 182L343 183L344 184L343 187Z"/>

  <!-- Hoàng Sa & Trường Sa - Vietnamese archipelagos, gold dots east of the mainland -->
  <g>
    <circle cx="554" cy="374" r="20" fill="none" stroke="#C39837" stroke-width="3" opacity="0.7"/>
    <circle cx="554" cy="374" r="11" fill="#D0A02B" stroke="#FFFFFF" stroke-width="3"/>
    <circle cx="639" cy="660" r="20" fill="none" stroke="#C39837" stroke-width="3" opacity="0.7"/>
    <circle cx="639" cy="660" r="11" fill="#D0A02B" stroke="#FFFFFF" stroke-width="3"/>
  </g>
</svg>
